<?xml version="1.0" encoding="UTF-8"?>
<svg width="32px" height="32px" viewBox="0 0 32 32" version="1.1" xmlns="http://www.w3.org/2000/svg" xmlns:xlink="http://www.w3.org/1999/xlink">
    <!-- Generator: Sketch 54.1 (76490) - https://sketchapp.com -->
    <title></title>
    <desc>Created with Sketch.</desc>
    <g id="页面1" stroke="none" stroke-width="1" fill="none" fill-rule="evenodd">
        <g id="运力保障" transform="translate(-306.000000, -461.000000)">
            <g id="矩形" transform="translate(286.000000, 447.000000)">
                <g id="预警播报-3" transform="translate(20.000000, 14.000000)">
                    <g id="预警播报-2">
                        <g id="推荐关注复制-3">
                            <g id="推荐关注" fill="#0091FF">
                                <circle id="椭圆形" cx="16" cy="16" r="16"></circle>
                                <g id="路径" transform="translate(13.600000, 14.400000)" opacity="0.398577009">
                                    <polygon points="10.08 0.290909091 0.48 6.18181818 10.08 11.4181818"></polygon>
                                </g>
                            </g>
                            <g id="喇叭" transform="translate(6.400000, 6.400000)">
                                <g id="编组-10">
                                    <rect id="矩形" stroke="#979797" stroke-width="0.6768" fill="#D8D8D8" opacity="0" x="0.3384" y="0.3384" width="19.3232" height="19.3232"></rect>
                                    <g id="编组-11" transform="translate(0.666667, 2.666667)">
                                        <path d="M9.80901984,-1.08357767e-13 L4.65231349,3.70038184 L1.56507937,3.70038184 C0.701063492,3.70038184 2.57571742e-14,4.39148607 2.57571742e-14,5.24424149 L2.57571742e-14,8.83348813 C2.57571742e-14,9.68624355 0.701063492,10.3763261 1.56507937,10.3763261 L4.65323413,10.3763261 L9.80901984,14.0763674 L9.80901984,-1.08357767e-13 Z" id="路径" fill="#FFFFFF" fill-rule="nonzero"></path>
                                        <path d="M0.0155357143,7.24728586 L0.0155357143,9.06052632 C0.0155357143,9.91328173 0.716599206,10.6033643 1.58061508,10.6033643 L4.66876984,10.6033643 L9.82455556,14.3034056 L9.82455556,7.24728586 L0.0155357143,7.24728586 Z" id="路径" fill="#0091FF" opacity="0.398577009"></path>
                                        <g id="编组-9" transform="translate(12.741587, 0.000000)" fill="#FFFFFF">
                                            <path d="M0.146515299,0.898821368 L4.89786993,0.912766487 C5.32256961,0.914012971 5.66667169,1.25775483 5.668363,1.68245298 L5.668363,1.68245298 C5.67003926,2.10337336 5.33017475,2.44595563 4.90925437,2.44763189 C4.90749704,2.44763889 4.90573969,2.44763981 4.90398235,2.44763465 L0.152627721,2.43368953 L0.146515299,0.898821368 Z" id="矩形" transform="translate(2.907442, 1.673230) rotate(-15.000000) translate(-2.907442, -1.673230) "></path>
                                            <path d="M0.147301587,6.35706914 L4.89918129,6.35706914 C5.32550636,6.35706914 5.67111111,6.7026739 5.67111111,7.12899897 L5.67111111,7.12899897 C5.67111111,7.55532404 5.32550636,7.90092879 4.89918129,7.90092879 L0.147301587,7.90092879 L0.147301587,6.35706914 Z" id="矩形复制"></path>
                                            <path d="M0.152627733,11.8119856 L4.90398243,11.7980405 C5.3249043,11.7968051 5.66713038,12.1370282 5.66836577,12.5579501 C5.66837093,12.5597074 5.66837001,12.5614648 5.66836301,12.5632221 L5.66836301,12.5632221 C5.6666717,12.9879202 5.32256966,13.3316621 4.89787001,13.3329085 L0.146515311,13.3468537 L0.152627733,11.8119856 Z" id="矩形复制-2" transform="translate(2.907442, 12.572445) rotate(-345.000000) translate(-2.907442, -12.572445) "></path>
                                        </g>
                                        <path d="M4.65323413,10.3085552 L1.56507937,10.3085552 C0.701063492,10.3085552 1.03028697e-13,9.61847265 1.03028697e-13,8.76571723 L1.03028697e-13,5.17647059 C1.03028697e-13,4.32371517 0.701063492,3.63261094 1.56507937,3.63261094 L4.65219841,3.63261094 L4.65323413,10.3085552 Z" id="路径" fill="#FFFFFF" fill-rule="nonzero"></path>
                                        <path d="M0.0155357143,9.06052632 C0.0155357143,9.91328173 0.716599206,10.6033643 1.58061508,10.6033643 L4.66876984,10.6033643 L4.66830952,7.24728586 L0.0155357143,7.24728586 L0.0155357143,9.06052632 Z" id="路径" fill="#0091FF" opacity="0.398577009"></path>
                                    </g>
                                </g>
                            </g>
                        </g>
                    </g>
                </g>
            </g>
        </g>
    </g>
</svg>
