<?xml version="1.0" encoding="UTF-8"?>
<svg width="16px" height="16px" viewBox="0 0 16 16" version="1.1" xmlns="http://www.w3.org/2000/svg" xmlns:xlink="http://www.w3.org/1999/xlink">
    <!-- Generator: Sketch 54.1 (76490) - https://sketchapp.com -->
    <title>删除</title>
    <desc>Created with Sketch.</desc>
    <g id="页面1" stroke="none" stroke-width="1" fill="none" fill-rule="evenodd">
        <g id="切图" transform="translate(-479.000000, -92.000000)" fill-rule="nonzero">
            <g id="删除-4" transform="translate(479.000000, 92.000000)">
                <g id="删除">
                    <rect id="矩形" fill="#000000" opacity="0" x="0" y="0" width="16" height="15.9423598"></rect>
                    <path d="M8.02234484,15.8685967 C3.64416125,15.8685967 0.094392,12.3312651 0.094392,7.96886984 C0.094392,3.60614006 3.64416125,0.0691588911 8.02234484,0.0691588911 C12.401216,0.0691588911 15.9503297,3.60614006 15.9503297,7.96886984 C15.9503297,12.3312651 12.401232,15.8685967 8.02234484,15.8685967 Z M11.6579279,5.66550109 C11.8069949,5.51698711 11.8069949,5.27594263 11.6579279,5.12776321 L10.8482049,4.3212918 C10.6992179,4.17247512 10.4579255,4.17247512 10.3088586,4.3212918 L8.01526166,6.60633925 L5.72163273,4.3212918 C5.57262977,4.17247512 5.33135334,4.17247512 5.18228641,4.3212918 L4.37256341,5.12776321 C4.22352845,5.27594263 4.22352845,5.51700304 4.37256341,5.66550109 L6.66620831,7.95053262 L4.37256341,10.2358669 C4.22352845,10.3840622 4.22352845,10.6251545 4.37256341,10.7736207 L5.18228641,11.5800761 C5.33135334,11.7285742 5.57262975,11.7285742 5.72163273,11.5800761 L8.01526166,9.29474191 L10.3088586,11.5800761 C10.4579255,11.7285742 10.6992179,11.7285742 10.8482049,11.5800761 L11.6579279,10.7736207 C11.8069949,10.6251545 11.8069949,10.3840622 11.6579279,10.2358669 L9.36433098,7.95054855 L11.6579279,5.66550109 Z" id="形状" fill="#AAB5C8"></path>
                </g>
            </g>
        </g>
    </g>
</svg>