<?xml version="1.0" encoding="UTF-8"?>
<svg width="36px" height="36px" viewBox="0 0 36 36" version="1.1" xmlns="http://www.w3.org/2000/svg" xmlns:xlink="http://www.w3.org/1999/xlink">
    <!-- Generator: Sketch 51 (57462) - http://www.bohemiancoding.com/sketch -->
    <title>zise _icon</title>
    <desc>Created with Sketch.</desc>
    <defs></defs>
    <g id="版本1" stroke="none" stroke-width="1" fill="none" fill-rule="evenodd">
        <g id="切图" transform="translate(-170.000000, -631.000000)">
            <g id="zise-_icon" transform="translate(170.000000, 631.000000)">
                <g id="紫色icon">
                    <g id="Group-11">
                        <g id="汽车图标-copy-11">
                            <circle id="Oval" fill="#4560F3" fill-rule="nonzero" cx="18" cy="18" r="18"></circle>
                            <g id="Group-3" transform="translate(7.714286, 7.714286)">
                                <path d="M16.4481168,13.4287064 C15.6127195,13.4287064 14.9702992,12.8260803 14.9702992,12.0430231 C14.9702992,11.2596752 15.612945,10.6572605 16.4481168,10.6572605 C17.2833732,10.6572605 17.9256808,11.2598602 17.9256808,12.0430231 C17.8615148,12.7659102 17.2190945,13.4287064 16.4481168,13.4287064 Z M4.11207922,13.4287064 C3.27679468,13.4287064 2.63437432,12.8260803 2.63437432,12.0430231 C2.63437432,11.2596752 3.27702012,10.6572605 4.11207922,10.6572605 C4.94725104,10.6572605 5.58986865,11.2598602 5.58986865,12.0430231 C5.58986865,12.7659102 4.94725104,13.4287064 4.11207922,13.4287064 Z M17.026343,3.14425227 C16.7051469,2.36111579 15.9983352,1.69831955 14.713269,1.69831955 L12.3361418,1.69831955 C12.3361418,1.69831955 11.5650232,0.0113364 11.1795485,0.0113364 L9.44470074,0.0113364 C9.05922599,0.0113364 8.2881074,1.69831955 8.2881074,1.69831955 L5.84678607,1.69831955 C4.56186082,1.69831955 3.85504908,2.36090439 3.53382481,3.14425227 L1.86319937,8.1960524 C1.22075084,8.25643393 -8.45401116e-06,8.97942671 -8.45401116e-06,10.3651893 L-8.45401116e-06,16.5014522 L1.92756258,16.5014522 L1.92756258,17.7666631 C1.92756258,19.8150105 4.49758215,19.7548404 4.49758215,17.7666631 L4.49758215,16.5014522 L16.0627266,16.5014522 L16.0627266,17.7666631 C16.0627266,19.7548404 18.632718,19.8150105 18.632718,17.7666631 L18.632718,16.5014522 L20.5602045,16.5014522 L20.5602045,10.3651893 C20.5602045,8.97942671 19.4036957,8.25643393 18.6968839,8.1960524 L17.026343,3.14425227 Z" id="Fill-1" fill="#FFFFFF"></path>
                                <path d="M3.59804712,8.07568573 L4.88305691,3.92762657 C5.01141699,3.50585436 5.26844712,3.14446367 5.84678607,3.14446367 L14.7776604,3.14446367 C15.3559148,3.14446367 15.5486945,3.44568423 15.7415023,3.92762657 L17.0264557,8.07568573 L3.59804712,8.07568573 Z" id="Path" fill="#4560F3"></path>
                            </g>
                        </g>
                    </g>
                </g>
            </g>
        </g>
    </g>
</svg>