<?xml version="1.0" encoding="UTF-8"?>
<svg width="24px" height="24px" viewBox="0 0 24 24" version="1.1" xmlns="http://www.w3.org/2000/svg" xmlns:xlink="http://www.w3.org/1999/xlink">
    <!-- Generator: Sketch 52.2 (67145) - http://www.bohemiancoding.com/sketch -->
    <title>icon/diqiu</title>
    <desc>Created with Sketch.</desc>
    <g id="版本1" stroke="none" stroke-width="1" fill="none" fill-rule="evenodd">
        <g id="切图" transform="translate(-255.000000, -702.000000)" stroke="#FFFFFF">
            <g id="icon/diqiu" transform="translate(255.000000, 702.000000)">
                <g id="icon/退出">
                    <g id="分组" transform="translate(4.000000, 3.200000)">
                        <path d="M2.46669446,14.3578947 C0.946546105,12.8403613 0,10.7037948 0,8.33684211 C0,3.73253135 3.581722,-5.32907052e-15 8,-5.32907052e-15 C12.418278,-5.32907052e-15 16,3.73253135 16,8.33684211 C16,10.7037948 15.0534539,12.8403613 13.5333055,14.3578947 C12.0963879,12.9234487 10.1469598,12.0421053 8,12.0421053 C5.85304024,12.0421053 3.90361215,12.9234487 2.46669446,14.3578947 Z" id="合并形状" stroke-width="1.1"></path>
                        <path d="M2.46669446,2.31578947 C3.90361215,3.75023546 5.85304024,4.63157895 8,4.63157895 C10.1469598,4.63157895 12.0963879,3.75023546 13.5333055,2.31578947 C15.0534539,3.83332296 16,5.96988942 16,8.33684211 C16,12.9411529 12.418278,16.6736842 8,16.6736842 C3.581722,16.6736842 0,12.9411529 0,8.33684211 C0,5.96988942 0.946546105,3.83332296 2.46669446,2.31578947 Z" id="合并形状" stroke-width="1.1"></path>
                        <path d="M7.23976482,16.7693694 C10.3102741,15.3101546 12.4444444,12.0832234 12.4444444,8.33684211 C12.4444444,4.70603287 10.4399171,1.56311904 7.52122265,0.0443708427" id="路径" stroke-width="1.1"></path>
                        <path d="M8.49757525,0.0346183192 C5.56869318,1.54963568 3.55555556,4.69824334 3.55555556,8.33684211 C3.55555556,12.0027879 5.59906767,15.1713496 8.56376886,16.6729484" id="路径" stroke-width="1.1"></path>
                        <rect id="矩形" stroke-width="1.1" fill="#D8D8D8" x="0.55" y="8.42368421" width="14.9" height="1"></rect>
                        <path d="M0.213157895,8.44239766 L15.7868421,8.44239766 L15.7868421,8.78128655 L16.125731,8.44239766 L16.3368421,8.44239766 L16.2312865,8.33684211 L16.3368421,8.23128655 L16.125731,8.23128655 L15.7868421,7.89239766 L15.7868421,8.23128655 L0.213157895,8.23128655 L0.213157895,7.89239766 L-0.125730994,8.23128655 L-0.336842105,8.23128655 L-0.23128655,8.33684211 L-0.336842105,8.44239766 L-0.125730994,8.44239766 L0.213157895,8.78128655 L0.213157895,8.44239766 Z" id="矩形-copy" stroke-width="1.1" fill="#D8D8D8" transform="translate(8.000000, 8.336842) rotate(-90.000000) translate(-8.000000, -8.336842) "></path>
                        <ellipse id="椭圆形-copy-3" stroke-width="1.65" cx="8" cy="8.33684211" rx="8" ry="8.33684211"></ellipse>
                    </g>
                </g>
            </g>
        </g>
    </g>
</svg>