<?xml version="1.0" encoding="UTF-8"?>
<svg width="40px" height="40px" viewBox="0 0 40 40" version="1.1" xmlns="http://www.w3.org/2000/svg" xmlns:xlink="http://www.w3.org/1999/xlink">
    <!-- Generator: Sketch 54.1 (76490) - https://sketchapp.com -->
    <title></title>
    <desc>Created with Sketch.</desc>
    <g id="页面1" stroke="none" stroke-width="1" fill="none" fill-rule="evenodd">
        <g id="我的行程（评价有建议）复制-2" transform="translate(-302.000000, -402.000000)" stroke="#333333">
            <g id="设置" transform="translate(270.000000, 124.000000)">
                <g id="分组-6">
                    <g id="退出-copy-2复制-2" transform="translate(32.000000, 278.000000)">
                        <g id="小icon/中文">
                            <g id="分组" stroke-width="1" fill-rule="evenodd" transform="translate(2.000000, 2.000000)">
                                <path d="M5.55006253,30.7669173 C2.12972874,27.5150598 0,22.9367031 0,17.8646617 C0,7.99828146 8.0588745,-5.32907052e-15 18,-5.32907052e-15 C27.9411255,-5.32907052e-15 36,7.99828146 36,17.8646617 C36,22.9367031 33.8702713,27.5150598 30.4499375,30.7669173 C27.2168727,27.6931045 22.8306595,25.8045113 18,25.8045113 C13.1693405,25.8045113 8.78312733,27.6931045 5.55006253,30.7669173 Z" id="合并形状" stroke-width="2" stroke-linecap="round"></path>
                                <path d="M0,17.9097744 L36,17.9097744" id="路径-2" stroke-width="2"></path>
                                <path d="M0.857142857,17.1428571 L35.1428571,17.1428571" id="路径-2-copy" stroke-width="2" transform="translate(18.000000, 17.142857) rotate(-90.000000) translate(-18.000000, -17.142857) "></path>
                                <path d="M5.55006253,4.96240602 C8.78312733,8.03621885 13.1693405,9.92481203 18,9.92481203 C22.8306595,9.92481203 27.2168727,8.03621885 30.4499375,4.96240602 C33.8702713,8.21426348 36,12.7926202 36,17.8646617 C36,27.7310418 27.9411255,35.7293233 18,35.7293233 C8.0588745,35.7293233 0,27.7310418 0,17.8646617 C0,12.7926202 2.12972874,8.21426348 5.55006253,4.96240602 Z" id="合并形状" stroke-width="2" stroke-linecap="round"></path>
                                <path d="M16.2894708,35.7522232 C23.1981168,32.6412256 28,25.7615152 28,17.7743544 C28,10.0335894 23.4898134,3.33300123 16.922751,0.0950803773" id="路径" stroke-width="1.99047619"></path>
                                <path d="M19.1195443,0.0741821125 C12.5295596,3.32064788 8,10.0676643 8,17.8646617 C8,25.7202599 12.5979023,32.5100349 19.2684799,35.7277465" id="路径" stroke-width="1.99047619"></path>
                            </g>
                            <circle id="椭圆形" stroke-width="3" stroke-linecap="round" cx="20" cy="20" r="18"></circle>
                        </g>
                    </g>
                </g>
            </g>
        </g>
    </g>
</svg>
