<?xml version="1.0" encoding="UTF-8"?>
<svg width="20px" height="20px" viewBox="0 0 20 20" version="1.1" xmlns="http://www.w3.org/2000/svg" xmlns:xlink="http://www.w3.org/1999/xlink">
    <!-- Generator: Sketch 53.1 (72631) - https://sketchapp.com -->
    <title>退出</title>
    <desc>Created with Sketch.</desc>
    <g id="Page-1" stroke="none" stroke-width="1" fill="none" fill-rule="evenodd">
        <g id="切图" transform="translate(-143.000000, -1339.000000)">
            <g id="分组" transform="translate(119.000000, 1332.000000)">
                <path d="M16,0.5 C7.43958638,0.5 0.5,7.43958638 0.5,16 C0.5,24.5604136 7.43958638,31.5 16,31.5 L106,31.5 C114.560414,31.5 121.5,24.5604136 121.5,16 C121.5,7.43958638 114.560414,0.5 106,0.5 L16,0.5 Z" id="Rectangle-2-Copy" stroke="#7A7F8A"></path>
                <g id="icon/中英文02" transform="translate(24.000000, 7.000000)" stroke="#7A7F8A">
                    <g id="分组" transform="translate(2.333333, 2.000000)">
                        <path d="M2.36391552,13.6741855 C0.907106684,12.2289155 0,10.1940903 0,7.93984962 C0,3.55479176 3.43248358,-5.32907052e-15 7.66666667,-5.32907052e-15 C11.9008497,-5.32907052e-15 15.3333333,3.55479176 15.3333333,7.93984962 C15.3333333,10.1940903 14.4262266,12.2289155 12.9694178,13.6741855 C11.5923717,12.3080464 9.72416977,11.4686717 7.66666667,11.4686717 C5.60916356,11.4686717 3.74096164,12.3080464 2.36391552,13.6741855 Z" id="合并形状" stroke-width="1.04761905"></path>
                        <path d="M0,9.14285714 L15.3333333,9.14285714" id="路径-2" stroke-width="0.952380952"></path>
                        <path d="M0.0476190476,7.61904762 L15.2857143,7.61904762" id="路径-2-copy" stroke-width="0.952380952" transform="translate(7.666667, 7.619048) rotate(-90.000000) translate(-7.666667, -7.619048) "></path>
                        <path d="M2.36391552,2.20551378 C3.74096164,3.57165282 5.60916356,4.41102757 7.66666667,4.41102757 C9.72416977,4.41102757 11.5923717,3.57165282 12.9694178,2.20551378 C14.4262266,3.65078377 15.3333333,5.68560897 15.3333333,7.93984962 C15.3333333,12.3249075 11.9008497,15.8796992 7.66666667,15.8796992 C3.43248358,15.8796992 0,12.3249075 0,7.93984962 C0,5.68560897 0.907106684,3.65078377 2.36391552,2.20551378 Z" id="合并形状" stroke-width="1.04761905"></path>
                        <path d="M6.93810795,15.889877 C9.88067937,14.5072114 11.9259259,11.4495623 11.9259259,7.89971308 C11.9259259,4.45937307 10.0049205,1.48133388 7.20783838,0.0422579455" id="路径" stroke-width="1.04761905"></path>
                        <path d="M8.14350961,0.0329698278 C5.33666429,1.4758435 3.40740741,4.47451747 3.40740741,7.93984962 C3.40740741,11.4312266 5.36577319,14.4489044 8.20694516,15.8789985" id="路径" stroke-width="1.04761905"></path>
                        <ellipse id="椭圆形-copy-3" stroke-width="0.952380952" cx="7.66666667" cy="7.93984962" rx="7.66666667" ry="7.93984962"></ellipse>
                    </g>
                </g>
                <g id="分组-4" transform="translate(24.000000, 7.000000)"></g>
            </g>
        </g>
    </g>
</svg>