<?xml version="1.0" encoding="UTF-8"?>
<svg width="30px" height="30px" viewBox="0 0 30 30" version="1.1" xmlns="http://www.w3.org/2000/svg" xmlns:xlink="http://www.w3.org/1999/xlink">
    <!-- Generator: Sketch 52.2 (67145) - http://www.bohemiancoding.com/sketch -->
    <title></title>
    <desc>Created with Sketch.</desc>
    <g id="电召服务修改" stroke="none" stroke-width="1" fill="none" fill-rule="evenodd">
        <g id="切图" transform="translate(-158.000000, -260.000000)" fill="#36C626">
            <g id="icon/提交成功-2" transform="translate(158.000000, 260.000000)">
                <g id="icon/提交成功">
                    <path d="M15.0000916,0 C6.71481533,0 0,6.71481533 0,15.0000916 C0,23.2851847 6.71481533,30 15.0000916,30 C23.2851847,30 30,23.2851847 30,15.0000916 C30,6.71481533 23.2851847,0 15.0000916,0 Z M22.6260042,10.4414556 L12.0936915,21.0088147 L12.0821192,21.0205335 C12.0117334,21.0966322 11.9267724,21.1641616 11.8330589,21.2167862 C11.6689962,21.3106461 11.4873187,21.3545549 11.3115006,21.3545549 C10.9452892,21.3545549 10.5879402,21.1641616 10.3945439,20.8212779 L7.20407374,15.2431094 C6.91410756,14.7362729 7.08992565,14.0918507 7.59672558,13.804741 C8.10356214,13.5146283 8.74802093,13.6904464 9.03513066,14.197283 L11.5370868,18.5772077 L21.1318251,8.95313593 C21.5419452,8.54001287 22.209988,8.54001287 22.6231477,8.950133 C23.0361243,9.36329268 23.0361243,10.0313355 22.6260042,10.4414556 Z" id="Fill-1"></path>
                </g>
            </g>
        </g>
    </g>
</svg>
