<?xml version="1.0" encoding="UTF-8"?>
<svg width="24px" height="24px" viewBox="0 0 24 24" version="1.1" xmlns="http://www.w3.org/2000/svg" xmlns:xlink="http://www.w3.org/1999/xlink">
    <!-- Generator: Sketch 52.2 (67145) - http://www.bohemiancoding.com/sketch -->
    <desc>Created with Sketch.</desc>
    <defs>
        <polygon id="path-hot" points="4.78306964e-06 0.0120487805 9.45271583 0.0120487805 9.45271583 17.5010544 4.78306964e-06 17.5010544"></polygon>
    </defs>
    <g id="版本1" stroke="none" stroke-width="1" fill="none" fill-rule="evenodd">
        <g id="切图" transform="translate(-206.000000, -702.000000)">
            <g id="icon_热力图" transform="translate(206.000000, 702.000000)">
                <g id="分组">
                    <g transform="translate(5.000000, 2.000000)">
                        <g transform="translate(0.000000, 0.012341)">
                            <mask id="hot-icon" fill="white">
                                <use xlink:href="#path-hot"></use>
                            </mask>
                            <g id="Clip-2"></g>
                            <path d="M4.481775,13.5530244 C4.481775,13.5530244 4.562325,11.9170976 6.80775,10.0414878 C6.80775,10.0414878 11.649925,6.33353659 8.230975,1.59436585 C8.230975,1.59436585 7.189475,0.452317073 5.46135,0.0120487805 L5.34035,0.0120487805 C5.34035,0.0120487805 7.387525,2.91143902 4.3717,5.14497561 C4.3717,5.14497561 -1.631025,9.59760976 0.431375,14.5516829 C0.431375,14.5516829 2.05275,19.6486829 6.80775,16.4416829 C6.80765,16.4416829 4.07795,16.5490244 4.481775,13.5530244" id="Fill-1" fill="#D0021B" mask="url(#hot-icon)"></path>
                        </g>
                        <path d="M10.689575,6.20971951 L10.3593,6.00230488 C10.3593,6.00230488 10.828625,8.40769512 8.53905,10.3834756 C8.53905,10.3834756 3.843375,13.5620366 6.983825,16.2250366 C6.983825,16.2250366 10.09515,17.4566463 4.958525,19.4036951 C4.958525,19.4036951 6.983825,21.2646707 10.946125,18.343939 C10.946125,18.343939 17.931925,13.4043537 10.689575,6.20971951" id="Fill-3" fill="#D0021B"></path>
                    </g>
                </g>
            </g>
        </g>
    </g>
</svg>
