<?xml version="1.0" encoding="UTF-8"?>
<svg width="62px" height="62px" viewBox="0 0 62 62" version="1.1" xmlns="http://www.w3.org/2000/svg" xmlns:xlink="http://www.w3.org/1999/xlink">
    <!-- Generator: Sketch 53.1 (72631) - https://sketchapp.com -->
    <title>汽车icon</title>
    <desc>Created with Sketch.</desc>
    <g id="页面-1" stroke="none" stroke-width="1" fill="none" fill-rule="evenodd">
        <g id="运行监控" transform="translate(-322.000000, -310.000000)">
            <g id="Group-3-Copy_export" transform="translate(321.500000, 309.500000)">
                <g id="汽车">
                    <g id="汽车icon" transform="translate(1.000000, 3.000000)">
                        <g id="Group-3-Copy">
                            <path d="M48.5865071,39.974026 C46.0894465,39.974026 44.1692073,38.2034346 44.1692073,35.9027139 C44.1692073,33.6011391 46.0901204,31.8311688 48.5865071,31.8311688 C51.0831465,31.8311688 53.0030488,33.6016826 53.0030488,35.9027139 C52.8112523,38.0266472 50.8910131,39.974026 48.5865071,39.974026 L48.5865071,39.974026 Z M12.5144824,39.974026 C10.017854,39.974026 8.09768801,38.2034346 8.09768801,35.9027139 C8.09768801,33.6011391 10.0185278,31.8311688 12.5144824,31.8311688 C15.0107739,31.8311688 16.9315295,33.6016826 16.9315295,35.9027139 C16.9315295,38.0266472 15.0107739,39.974026 12.5144824,39.974026 L12.5144824,39.974026 Z M49.9892008,9.26748703 C49.0461722,6.95088886 46.9709799,4.9902695 43.1980383,4.9902695 L36.2188162,4.9902695 C36.2188162,4.9902695 33.9548196,0 32.8230695,0 L27.7295735,0 C26.5978234,0 24.3338268,4.9902695 24.3338268,4.9902695 L17.1661313,4.9902695 C13.3936034,4.9902695 11.3184111,6.95026351 10.3752998,9.26748703 L5.4703599,24.2112309 C3.58413731,24.3898456 0,26.5285326 0,30.6277607 L0,48.7794568 L5.65932965,48.7794568 L5.65932965,52.5220807 C5.65932965,58.5813029 13.2048819,58.4033134 13.2048819,52.5220807 L13.2048819,48.7794568 L47.1600324,48.7794568 L47.1600324,52.5220807 C47.1600324,58.4033134 54.7055019,58.5813029 54.7055019,52.5220807 L54.7055019,48.7794568 L60.3645833,48.7794568 L60.3645833,30.6277607 C60.3645833,26.5285326 56.9690848,24.3898456 54.8938925,24.2112309 L49.9892008,9.26748703 Z" id="Fill-1" fill="#90CAF9" opacity="0.2"></path>
                            <path d="M10.3061484,24.4285714 L14.110179,11.9746963 C14.4901649,10.7083936 15.2510545,9.62337662 16.9631185,9.62337662 L43.401298,9.62337662 C45.1131118,9.62337662 45.6837998,10.5277425 46.2545712,11.9746963 L50.058435,24.4285714 L10.3061484,24.4285714 Z" id="Path" fill="#21253F"></path>
                        </g>
                    </g>
                </g>
            </g>
        </g>
    </g>
</svg>