<?xml version="1.0" encoding="UTF-8"?>
<svg width="100px" height="100px" viewBox="0 0 100 100" version="1.1" xmlns="http://www.w3.org/2000/svg" xmlns:xlink="http://www.w3.org/1999/xlink">
    <!-- Generator: Sketch 53.1 (72631) - https://sketchapp.com -->
    <title>空车</title>
    <desc>Created with Sketch.</desc>
    <defs>
        <linearGradient x1="24.2891906%" y1="15.6990841%" x2="84.4198258%" y2="86.0250539%" id="linearGradient-2">
            <stop stop-color="#9ACBFB" offset="0%"></stop>
            <stop stop-color="#619BF5" offset="100%"></stop>
        </linearGradient>
    </defs>
    <g id="页面-1" stroke="none" stroke-width="1" fill="none" fill-rule="evenodd">
        <g id="运行监控" transform="translate(-1385.000000, -211.000000)">
            <g id="分组-copy" transform="translate(1385.000000, 211.000000)">
                <g id="空车-2">
                    <g id="空车">
                        <rect id="矩形" fill="url(#linearGradient-2)" x="0" y="0" width="100" height="100" rx="4"></rect>
                        <g id="Group-3-Copy-2" transform="translate(26.000000, 27.000000)">
                            <path d="M37.8039686,31.183687 C35.8610671,31.183687 34.3669761,29.8024509 34.3669761,28.0076616 C34.3669761,26.212206 35.8615914,24.8314545 37.8039686,24.8314545 C39.7465425,24.8314545 41.2403713,26.21263 41.2403713,28.0076616 C41.0911392,29.6645393 39.5970482,31.183687 37.8039686,31.183687 L37.8039686,31.183687 Z M9.73721159,31.183687 C7.79464628,31.183687 6.30061229,29.8024509 6.30061229,28.0076616 C6.30061229,26.212206 7.79517057,24.8314545 9.73721159,24.8314545 C11.6795148,24.8314545 13.1740075,26.21263 13.1740075,28.0076616 C13.1740075,29.6645393 11.6795148,31.183687 9.73721159,31.183687 L9.73721159,31.183687 Z M38.8953702,7.22955488 C38.1616228,5.42237959 36.5469666,3.89290292 33.6113333,3.89290292 L28.1809719,3.89290292 C28.1809719,3.89290292 26.4194117,-7.11791737e-14 25.5388247,-7.11791737e-14 L21.5757005,-7.11791737e-14 C20.6951136,-7.11791737e-14 18.9335534,3.89290292 18.9335534,3.89290292 L13.3565455,3.89290292 C10.4212341,3.89290292 8.80657786,5.42189176 8.07276611,7.22955488 L4.25635277,18.8871505 C2.78872927,19.0264877 -9.1038471e-14,20.6948746 -9.1038471e-14,23.8926773 L-9.1038471e-14,38.0527924 L4.40338549,38.0527924 L4.40338549,40.9724086 C4.40338549,45.6992001 10.2743945,45.5603508 10.2743945,40.9724086 L10.2743945,38.0527924 L36.6940637,38.0527924 L36.6940637,40.9724086 C36.6940637,45.5603508 42.5650083,45.6992001 42.5650083,40.9724086 L42.5650083,38.0527924 L46.9682007,38.0527924 L46.9682007,23.8926773 C46.9682007,20.6948746 44.3262466,19.0264877 42.7115904,18.8871505 L38.8953702,7.22955488 Z" id="Fill-1" fill="#FFFFFF"></path>
                            <path d="M8.01896109,19.0566976 L10.9787839,9.34144539 C11.2744417,8.35360426 11.8664711,7.50718391 13.1985862,7.50718391 L33.7694847,7.50718391 C35.101405,7.50718391 35.5454433,8.21267861 35.9895466,9.34144539 L38.9492396,19.0566976 L8.01896109,19.0566976 Z" id="Path" fill="#619BF5"></path>
                        </g>
                    </g>
                </g>
            </g>
        </g>
    </g>
</svg>
