<?xml version="1.0" encoding="UTF-8"?>
<svg width="100px" height="100px" viewBox="0 0 100 100" version="1.1" xmlns="http://www.w3.org/2000/svg" xmlns:xlink="http://www.w3.org/1999/xlink">
    <!-- Generator: Sketch 53.1 (72631) - https://sketchapp.com -->
    <title>重车</title>
    <desc>Created with Sketch.</desc>
    <defs>
        <linearGradient x1="21.7149078%" y1="10.9913793%" x2="82.0408555%" y2="84.4288793%" id="linearGradient-1">
            <stop stop-color="#99D972" offset="0%"></stop>
            <stop stop-color="#60B23E" offset="100%"></stop>
        </linearGradient>
    </defs>
    <g id="页面-1" stroke="none" stroke-width="1" fill="none" fill-rule="evenodd">
        <g id="运行监控" transform="translate(-836.000000, -211.000000)">
            <g id="分组" transform="translate(836.000000, 211.000000)">
                <g id="重车-2">
                    <g id="重车">
                        <rect id="矩形" fill="url(#linearGradient-1)" x="0" y="0" width="100" height="100" rx="4"></rect>
                        <g id="Group-3-Copy" transform="translate(27.500000, 27.500000)">
                            <path d="M38.2320056,31.5584416 C36.2671054,31.5584416 34.7560976,30.1606062 34.7560976,28.3442478 C34.7560976,26.5272151 36.2676357,25.1298701 38.2320056,25.1298701 C40.1965743,25.1298701 41.7073171,26.5276442 41.7073171,28.3442478 C41.5563952,30.0210372 40.0453874,31.5584416 38.2320056,31.5584416 L38.2320056,31.5584416 Z M9.84746156,31.5584416 C7.88290147,31.5584416 6.37195122,30.1606062 6.37195122,28.3442478 C6.37195122,26.5272151 7.8834317,25.1298701 9.84746156,25.1298701 C11.8117565,25.1298701 13.3231707,26.5276442 13.3231707,28.3442478 C13.3231707,30.0210372 11.8117565,31.5584416 9.84746156,31.5584416 L9.84746156,31.5584416 Z M39.3357646,7.31643713 C38.5937093,5.48754384 36.9607711,3.93968645 33.991899,3.93968645 L28.5000521,3.93968645 C28.5000521,3.93968645 26.7185466,-7.11791737e-14 25.8279891,-7.11791737e-14 L21.8199923,-7.11791737e-14 C20.9294348,-7.11791737e-14 19.1479293,3.93968645 19.1479293,3.93968645 L13.5077755,3.93968645 C10.5392289,3.93968645 8.90629069,5.48705014 8.16417033,7.31643713 L4.30454549,19.1141296 C2.82030477,19.2551413 2.26483667e-14,20.9435783 2.26483667e-14,24.1798111 L2.26483667e-14,38.5100974 L4.453243,38.5100974 L4.453243,41.4648006 C4.453243,46.248397 10.3907267,46.107879 10.3907267,41.4648006 L10.3907267,38.5100974 L37.1095337,38.5100974 L37.1095337,41.4648006 C37.1095337,46.107879 43.0469523,46.248397 43.0469523,41.4648006 L43.0469523,38.5100974 L47.5,38.5100974 L47.5,24.1798111 C47.5,20.9435783 44.8281323,19.2551413 43.1951941,19.1141296 L39.3357646,7.31643713 Z" id="Fill-1" fill="#FFFFFF"></path>
                            <path d="M8.1097561,19.2857143 L11.1030916,9.45370759 C11.402097,8.45399493 12.0008297,7.5974026 13.3480277,7.5974026 L34.151841,7.5974026 C35.498842,7.5974026 35.947908,8.31137569 36.3970396,9.45370759 L39.3902439,19.2857143 L8.1097561,19.2857143 Z" id="Path" fill="#8ACF64"></path>
                        </g>
                    </g>
                </g>
            </g>
        </g>
    </g>
</svg>