<?xml version="1.0" encoding="UTF-8"?>
<svg width="62px" height="63px" viewBox="0 0 62 63" version="1.1" xmlns="http://www.w3.org/2000/svg" xmlns:xlink="http://www.w3.org/1999/xlink">
    <!-- Generator: Sketch 53.1 (72631) - https://sketchapp.com -->
    <title>乘距</title>
    <desc>Created with Sketch.</desc>
    <g id="页面-1" stroke="none" stroke-width="1" fill="none" fill-rule="evenodd" opacity="0.2">
        <g id="运行监控" transform="translate(-322.000000, -503.000000)" fill="#90CAF9">
            <g id="乘距" transform="translate(322.000000, 502.500000)">
                <g transform="translate(8.000000, 4.000000)" id="合并形状">
                    <path d="M12.5454545,6.84615385 L12.5454545,4.7 C12.5454545,2.38040405 14.4258586,0.5 16.7454545,0.5 L29.2545455,0.5 C31.5741414,0.5 33.4545455,2.38040405 33.4545455,4.7 L33.4545455,6.84615385 L37.6,6.84615385 C42.2391919,6.84615385 46,10.6069619 46,15.2461538 L46,47.1 C46,51.7391919 42.2391919,55.5 37.6,55.5 L8.4,55.5 C3.7608081,55.5 -1.20821969e-15,51.7391919 -1.77635684e-15,47.1 L0,15.2461538 C-5.68137151e-16,10.6069619 3.7608081,6.84615385 8.4,6.84615385 L12.5454545,6.84615385 Z M8.36363636,15.3076923 L8.36363636,21.6538462 L37.6363636,21.6538462 L37.6363636,15.3076923 L8.36363636,15.3076923 Z M8.36363636,25.8846154 L8.36363636,32.2307692 L37.6363636,32.2307692 L37.6363636,25.8846154 L8.36363636,25.8846154 Z M8.36363636,36.4615385 L8.36363636,42.8076923 L27.1818182,42.8076923 L27.1818182,36.4615385 L8.36363636,36.4615385 Z"></path>
                </g>
            </g>
        </g>
    </g>
</svg>