<?xml version="1.0" encoding="UTF-8"?>
<svg width="56px" height="40px" viewBox="0 0 56 40" version="1.1" xmlns="http://www.w3.org/2000/svg" xmlns:xlink="http://www.w3.org/1999/xlink">
    <!-- Generator: Sketch 53.1 (72631) - https://sketchapp.com -->
    <title></title>
    <desc>Created with Sketch.</desc>
    <g id="页面-1" stroke="none" stroke-width="1" fill="none" fill-rule="evenodd">
        <g id="运行监控" transform="translate(-2947.000000, -162.000000)">
            <g id="分组-4" transform="translate(2921.000000, 140.000000)">
                <g id="分组-25" transform="translate(26.000000, 22.000000)">
                    <g id="分组-26">
                        <g id="行程查找-2">
                            <g id="行程查找">
                                <rect id="矩形" fill="#D8D8D8" opacity="0" x="0" y="0" width="56" height="40"></rect>
                                <path d="M48.0846034,30.5760756 L43.8721959,26.3970999 C44.458538,25.518841 44.8,24.465647 44.8,23.3333333 C44.8,20.2650847 42.2927946,17.7777778 39.2,17.7777778 C36.1072054,17.7777778 33.6,20.2650847 33.6,23.3333333 C33.6,26.4015819 36.1072054,28.8888889 39.2,28.8888889 C40.3413722,28.8888889 41.4029917,28.5501369 42.2882767,27.9684483 L46.5029838,32.1497054 C46.3225156,32.1970255 46.1330892,32.2222222 45.9377778,32.2222222 L10.0622222,32.2222222 C8.83492278,32.2222222 7.84,31.2272994 7.84,30 L7.84,10 C7.84,8.77270056 8.83492278,7.77777778 10.0622222,7.77777778 L45.9377778,7.77777778 C47.1650772,7.77777778 48.16,8.77270056 48.16,10 L48.16,30 C48.16,30.1992366 48.1337804,30.3923492 48.0846034,30.5760756 Z M39.2,26.6666667 C37.3443232,26.6666667 35.84,25.1742825 35.84,23.3333333 C35.84,21.4923842 37.3443232,20 39.2,20 C41.0556768,20 42.56,21.4923842 42.56,23.3333333 C42.56,25.1742825 41.0556768,26.6666667 39.2,26.6666667 Z M12.3111111,12.2222222 C11.6974614,12.2222222 11.2,12.7196836 11.2,13.3333333 C11.2,13.9469831 11.6974614,14.4444444 12.3111111,14.4444444 L30.2488889,14.4444444 C30.8625386,14.4444444 31.36,13.9469831 31.36,13.3333333 C31.36,12.7196836 30.8625386,12.2222222 30.2488889,12.2222222 L12.3111111,12.2222222 Z M12.3111111,16.6666667 C11.6974614,16.6666667 11.2,17.1641281 11.2,17.7777778 C11.2,18.3914275 11.6974614,18.8888889 12.3111111,18.8888889 L30.2488889,18.8888889 C30.8625386,18.8888889 31.36,18.3914275 31.36,17.7777778 C31.36,17.1641281 30.8625386,16.6666667 30.2488889,16.6666667 L12.3111111,16.6666667 Z M12.3111111,25.5555556 C11.6974614,25.5555556 11.2,26.0530169 11.2,26.6666667 C11.2,27.2803164 11.6974614,27.7777778 12.3111111,27.7777778 L17.9288889,27.7777778 C18.5425386,27.7777778 19.04,27.2803164 19.04,26.6666667 C19.04,26.0530169 18.5425386,25.5555556 17.9288889,25.5555556 L12.3111111,25.5555556 Z" id="合并形状" fill="#FFFFFF"></path>
                            </g>
                        </g>
                    </g>
                </g>
            </g>
        </g>
    </g>
</svg>
