<?xml version="1.0" encoding="UTF-8"?>
<svg width="56px" height="40px" viewBox="0 0 56 40" version="1.1" xmlns="http://www.w3.org/2000/svg" xmlns:xlink="http://www.w3.org/1999/xlink">
    <!-- Generator: Sketch 53.1 (72631) - https://sketchapp.com -->
    <title></title>
    <desc>Created with Sketch.</desc>
    <g id="页面-1" stroke="none" stroke-width="1" fill="none" fill-rule="evenodd">
        <g id="运行监控" transform="translate(-2701.000000, -162.000000)">
            <g id="分组-21" transform="translate(2686.000000, 140.000000)">
                <g id="分组-15" transform="translate(15.000000, 22.000000)">
                    <g id="icon/计价器">
                        <g>
                            <rect id="矩形" fill="#D8D8D8" opacity="0" x="0" y="0" width="56" height="40"></rect>
                            <g id="计价器-2" transform="translate(8.000000, 7.000000)" fill="#FFFFFF">
                                <g id="计价器">
                                    <path d="M35.4,23.5555556 L35.4,16.1666667 L25.86,16.1666667 L25.86,23.5555556 L2.53111111,23.5555556 C1.36517664,23.5555556 0.42,22.6103789 0.42,21.4444444 L0.42,2.44444444 C0.42,1.27850997 1.36517664,0.333333333 2.53111111,0.333333333 L37.5288889,0.333333333 C38.6948234,0.333333333 39.64,1.27850997 39.64,2.44444444 L39.64,21.4444444 C39.64,22.6103789 38.6948234,23.5555556 37.5288889,23.5555556 L35.4,23.5555556 Z M4.66,4.55555556 L4.66,11.9444444 L35.4,11.9444444 L35.4,4.55555556 L4.66,4.55555556 Z M4.66,16.1666667 L4.66,19.3333333 L7.84,19.3333333 L7.84,16.1666667 L4.66,16.1666667 Z M9.96,16.1666667 L9.96,19.3333333 L13.14,19.3333333 L13.14,16.1666667 L9.96,16.1666667 Z M15.26,16.1666667 L15.26,19.3333333 L18.44,19.3333333 L18.44,16.1666667 L15.26,16.1666667 Z" id="合并形状"></path>
                                    <rect id="矩形" x="27.98" y="18.2777778" width="5.3" height="7.38888889"></rect>
                                </g>
                            </g>
                        </g>
                    </g>
                </g>
            </g>
        </g>
    </g>
</svg>
