<?xml version="1.0" encoding="UTF-8"?>
<svg width="16px" height="16px" viewBox="0 0 16 16" version="1.1" xmlns="http://www.w3.org/2000/svg" xmlns:xlink="http://www.w3.org/1999/xlink">
    <!-- Generator: Sketch 51 (57462) - http://www.bohemiancoding.com/sketch -->
    <title>yunyingshuju  _icon</title>
    <desc>Created with Sketch.</desc>
    <defs></defs>
    <g id="版本1" stroke="none" stroke-width="1" fill="none" fill-rule="evenodd">
        <g id="切图" transform="translate(-302.000000, -783.000000)" fill="#FFFFFF">
            <g id="yunyingshuju" transform="translate(302.000000, 783.000000)">
                <g id="Analytics-icon">
                    <path d="M1.27532214,12.5988498 C1.08377129,12.4075024 0.984170807,12.142907 1.00205275,11.8728911 L1.00205275,9.87501562 C0.984170807,9.60499979 1.08377129,9.34040436 1.27532214,9.14905699 C1.46687299,8.95770962 1.73174979,8.85821493 2.00205275,8.87607787 L4.00205275,8.87607787 C4.27244396,8.857879 4.53752122,8.95726516 4.72915017,9.14869056 C4.92077913,9.34011595 5.02027098,9.60491164 5.00205275,9.87501562 L5.00205275,11.8728911 C5.02027098,12.1429951 4.92077913,12.4077908 4.72915017,12.5992162 C4.53752122,12.7906416 4.27244396,12.8900278 4.00205275,12.8718289 L2.00205275,12.8718289 C1.73174979,12.8896918 1.46687299,12.7901971 1.27532214,12.5988498 Z M6.00205275,12.2485048 L6.00205275,1.74990032 C6.01010657,1.33826943 6.45313861,1.00603957 7.00205275,1 L9.00205275,1 C9.55096688,1.00603957 9.99399892,1.33826943 10.0020527,1.74990032 L10.0020527,12.2485048 C9.99399892,12.6601357 9.55096688,12.9923656 9.00205275,12.9984051 L7.00205275,12.9984051 C6.45313861,12.9923656 6.01010657,12.6601357 6.00205275,12.2485048 Z M11.0020527,12.2485048 L11.0020527,5.49940193 C11.0147284,5.08924524 11.4551045,4.7590071 12.0020527,4.74950161 L14.0020527,4.74950161 C14.549001,4.7590071 14.9893771,5.08924524 15.0020527,5.49940193 L15.0020527,12.2485048 C14.9898832,12.6588238 14.5492174,12.9892792 14.0020527,12.9984051 L12.0020527,12.9984051 C11.4548881,12.9892792 11.0142223,12.6588238 11.0020527,12.2485048 Z" fill-rule="evenodd"></path>
                    <rect id="Rectangle-11" fill-rule="nonzero" x="1" y="14" width="14" height="1" rx="0.5"></rect>
                </g>
            </g>
        </g>
    </g>
</svg>