<?xml version="1.0" encoding="UTF-8"?>
<svg width="24px" height="24px" viewBox="0 0 24 24" version="1.1" xmlns="http://www.w3.org/2000/svg" xmlns:xlink="http://www.w3.org/1999/xlink">
    <!-- Generator: Sketch 52.1 (67048) - http://www.bohemiancoding.com/sketch -->
    <title>切图</title>
    <desc>Created with Sketch.</desc>
    <g id="版本1" stroke="none" stroke-width="1" fill="none" fill-rule="evenodd">
        <g id="切图" transform="translate(-182.000000, -1291.000000)" fill="#2A9EF6" fill-rule="nonzero">
            <g id="出租车" transform="translate(182.000000, 1291.000000)">
                <g id="icon_热力图-copy-2">
                    <path d="M10,4 L10.2236068,3.5527864 C10.3929988,3.21400238 10.7392619,3 11.118034,3 L12.881966,3 C13.2607381,3 13.6070012,3.21400238 13.7763932,3.5527864 L14,4 L16.4913972,4 C17.3843579,4 18.1691299,4.59195463 18.4144451,5.45055774 L20,11 C21.1045695,11 22,11.8954305 22,13 L22,18 L2,18 L2,13 C2,11.8954305 2.8954305,11 4,11 L5.58555493,5.45055774 C5.83087011,4.59195463 6.61564211,4 7.50860283,4 L10,4 Z M6,17 C7.1045695,17 8,16.1045695 8,15 C8,13.8954305 7.1045695,13 6,13 C4.8954305,13 4,13.8954305 4,15 C4,16.1045695 4.8954305,17 6,17 Z M18,17 C19.1045695,17 20,16.1045695 20,15 C20,13.8954305 19.1045695,13 18,13 C16.8954305,13 16,13.8954305 16,15 C16,16.1045695 16.8954305,17 18,17 Z M7.78977024,5.3 C7.33682399,5.3 6.940438,5.60444623 6.82360772,6.04206592 L5.5,11 L18.5,11 L17.215956,6.04895717 C17.1015815,5.60794996 16.7035773,5.3 16.24798,5.3 L7.78977024,5.3 Z" id="合并形状"></path>
                    <path d="M4,17 L8,17 L8,19 C8,20.1045695 7.1045695,21 6,21 L6,21 C4.8954305,21 4,20.1045695 4,19 L4,17 Z" id="矩形"></path>
                    <path d="M16,17 L20,17 L20,19 C20,20.1045695 19.1045695,21 18,21 L18,21 C16.8954305,21 16,20.1045695 16,19 L16,17 Z" id="矩形-copy-2"></path>
                </g>
            </g>
        </g>
    </g>
</svg>