<?xml version="1.0" encoding="UTF-8"?>
<svg width="18px" height="18px" viewBox="0 0 18 18" version="1.1" xmlns="http://www.w3.org/2000/svg" xmlns:xlink="http://www.w3.org/1999/xlink">
    <!-- Generator: Sketch 52.2 (67145) - http://www.bohemiancoding.com/sketch -->
    <title>侧边栏/icon/设置</title>
    <desc>Created with Sketch.</desc>
    <g id="电召服务修改" stroke="none" stroke-width="1" fill="none" fill-rule="evenodd">
        <g id="切图" transform="translate(-292.000000, -149.000000)" fill="#FFFFFF">
            <g id="侧边栏/icon/设置-2" transform="translate(292.000000, 149.000000)">
                <g id="侧边栏/icon/设置">
                    <path d="M9.00158357,12.1942494 C7.2419574,12.1942494 5.8116047,10.7642584 5.8116047,8.997866 C5.8116047,7.23464719 7.23879026,5.80460198 9.00158357,5.80460198 C10.7612097,5.80460198 12.1914542,7.23456582 12.1914542,9.00095822 C12.188287,10.764177 10.7612097,12.1942494 9.00158357,12.1942494 Z M16.9402576,7.88526202 C16.8775376,7.53632893 16.5418215,7.18126564 16.1937077,7.10265804 L15.9333803,7.04287504 C15.3216906,6.85745009 14.7791365,6.45196184 14.4340815,5.85478282 C14.0890536,5.25453869 14.007439,4.57240488 14.1579996,3.94704321 L14.239533,3.70188951 C14.3430468,3.36239584 14.2081324,2.89416799 13.9353259,2.6615188 C13.9353259,2.6615188 13.6906446,2.45401428 13.0005617,2.05487323 C12.3105058,1.65893291 12.0125247,1.54886057 12.0125247,1.54886057 C11.676917,1.42636509 11.2063678,1.54262188 10.9617948,1.8034537 L10.7798065,1.99831808 C10.3156186,2.43833616 9.69131458,2.70559656 9.00136701,2.70559656 C8.31131116,2.70559656 7.68088944,2.43527106 7.2165662,1.99205226 L7.04093924,1.8034537 C6.79931683,1.54262188 6.32581703,1.42636509 5.99010102,1.54886057 C5.99010102,1.54886057 5.68906104,1.65893291 4.99897813,2.05487323 C4.308814,2.457215 4.06729987,2.66466528 4.06729987,2.66466528 C3.79449339,2.89405949 3.65957897,3.35919511 3.76309276,3.70188951 L3.83848133,3.95013544 C3.98590186,4.57557848 3.90742736,5.25453869 3.56239944,5.85478282 C3.21737152,6.45505406 2.66859142,6.86371591 2.05392415,7.04604864 L1.80298983,7.10265804 C1.4579619,7.18126564 1.11915997,7.53326383 1.05646699,7.88526202 C1.05646699,7.88526202 1,8.19952965 1,8.997866 C1,9.79617522 1.05646699,10.1104429 1.05646699,10.1104429 C1.11915997,10.4624953 1.45479477,10.8145206 1.80298983,10.8931011 L2.04767109,10.9495749 C2.66244664,11.1319347 3.21442094,11.5406237 3.55955714,12.1440414 C3.90458507,12.7443669 3.98609135,13.4264465 3.83553076,14.051781 L3.76341759,14.2937882 C3.66001208,14.6332548 3.79481822,15.1016183 4.0676247,15.3341861 C4.0676247,15.3341861 4.31230597,15.5416092 5.00236181,15.9407503 C5.69244473,16.3398913 5.99039878,16.4468172 5.99039878,16.4468172 C6.32614187,16.5692855 6.79658281,16.453083 7.04126408,16.192224 L7.2137239,16.0067991 C7.68099771,15.5635803 8.30844179,15.2932548 9.00158357,15.2932548 C9.69480655,15.2932548 10.3252283,15.5667268 10.7895515,16.0098371 L10.9620113,16.195262 C11.2035255,16.456121 11.6771335,16.5724591 12.0127413,16.4499094 C12.0127413,16.4499094 12.3138895,16.3398913 13.0039454,15.9439239 C13.6940283,15.5447286 13.9355424,15.3373325 13.9355424,15.3373325 C14.2084572,15.1078298 14.3432633,14.6396291 14.2397495,14.296989 L14.1644692,14.0455152 C14.0170487,13.4232729 14.0954149,12.7442855 14.4405511,12.1471336 C14.7855791,11.5467539 15.3375263,11.1351083 15.9523018,10.9527756 L16.1969831,10.8962204 C16.5420381,10.8175586 16.880813,10.4656146 16.943533,10.1135893 C16.943533,10.1135893 17,9.79932169 17,9.00095822 C16.9966975,8.19942115 16.9402576,7.8851264 16.9402576,7.8851264 L16.9402576,7.88526202 Z" id="Fill-1"></path>
                </g>
            </g>
        </g>
    </g>
</svg>