<?xml version="1.0" encoding="UTF-8"?>
<svg width="16px" height="16px" viewBox="0 0 16 16" version="1.1" xmlns="http://www.w3.org/2000/svg" xmlns:xlink="http://www.w3.org/1999/xlink">
    <!-- Generator: Sketch 51 (57462) - http://www.bohemiancoding.com/sketch -->
    <title>jiaoyijilv _icon</title>
    <desc>Created with Sketch.</desc>
    <defs></defs>
    <g id="版本1" stroke="none" stroke-width="1" fill="none" fill-rule="evenodd" opacity="0.8">
        <g id="切图" transform="translate(-261.000000, -783.000000)" fill="#FFFFFF">
            <g id="jiaoyijilv" transform="translate(261.000000, 783.000000)">
                <g id="交易记录">
                    <g id="Group" transform="translate(2.000000, 1.500000)">
                        <path d="M9,1 L11,1 C11.5522847,1 12,1.44771525 12,2 L12,12 C12,12.5522847 11.5522847,13 11,13 L1,13 C0.44771525,13 6.76353751e-17,12.5522847 0,12 L0,2 C-6.76353751e-17,1.44771525 0.44771525,1 1,1 L3,1 L3,2 C3,2.55228475 3.44771525,3 4,3 C4.55228475,3 5,2.55228475 5,2 L5,1 L7,1 L7,2 C7,2.55228475 7.44771525,3 8,3 C8.55228475,3 9,2.55228475 9,2 L9,1 Z M3.5,4.5 C3.22385763,4.5 3,4.72385763 3,5 C3,5.27614237 3.22385763,5.5 3.5,5.5 L8.5,5.5 C8.77614237,5.5 9,5.27614237 9,5 C9,4.72385763 8.77614237,4.5 8.5,4.5 L3.5,4.5 Z M3.5,6.5 C3.22385763,6.5 3,6.72385763 3,7 C3,7.27614237 3.22385763,7.5 3.5,7.5 L8.5,7.5 C8.77614237,7.5 9,7.27614237 9,7 C9,6.72385763 8.77614237,6.5 8.5,6.5 L3.5,6.5 Z M3.5,8.5 C3.22385763,8.5 3,8.72385763 3,9 C3,9.27614237 3.22385763,9.5 3.5,9.5 L6.5,9.5 C6.77614237,9.5 7,9.27614237 7,9 C7,8.72385763 6.77614237,8.5 6.5,8.5 L3.5,8.5 Z" id="Combined-Shape" fill-rule="nonzero"></path>
                        <rect id="Rectangle-9" fill-rule="nonzero" x="3.5" y="0" width="1" height="2.5" rx="0.5"></rect>
                        <rect id="Rectangle-9-Copy" fill-rule="nonzero" x="7.5" y="0" width="1" height="2.5" rx="0.5"></rect>
                    </g>
                </g>
            </g>
        </g>
    </g>
</svg>